<svg preserveAspectRatio="none" width="100%" height="100%" overflow="visible" style="display: block;" viewBox="0 0 47 57" fill="none" xmlns="http://www.w3.org/2000/svg">
<g id="bell">
<path id="Union" fill-rule="evenodd" clip-rule="evenodd" d="M23.25 2.03848e-05C13.2629 2.03848e-05 5.16668 8.0962 5.16668 18.0834V27.9192L0.184781 40.3739C-0.13358 41.1698 -0.0364056 42.0718 0.444172 42.7816C0.924749 43.4915 1.72613 43.9167 2.58335 43.9167H43.9167C44.7739 43.9167 45.5753 43.4915 46.0559 42.7816C46.5364 42.0718 46.6336 41.1698 46.3152 40.3739L41.3333 27.9192V18.0834C41.3333 8.09621 33.2372 2.03848e-05 23.25 2.03848e-05Z" fill="var(--fill-0, white)"/>
<path id="Subtract" fill-rule="evenodd" clip-rule="evenodd" d="M15.3559 49.0834C13.4935 49.0834 12.2892 51.0016 13.5137 52.4049C15.8815 55.1187 19.3655 56.8334 23.2499 56.8334C27.1344 56.8334 30.6183 55.1187 32.9862 52.4049C34.2107 51.0016 33.0064 49.0834 31.144 49.0834H15.3559Z" fill="var(--fill-0, white)"/>
</g>
</svg>
