<svg preserveAspectRatio="none" width="100%" height="100%" overflow="visible" style="display: block;" viewBox="0 0 57 47" fill="none" xmlns="http://www.w3.org/2000/svg">
<g id="brain">
<path id="Subtract" fill-rule="evenodd" clip-rule="evenodd" d="M25.0563 3.38419C27.3134 1.29386 30.297 0 33.5832 0C38.7008 0 43.0337 3.11633 45.1251 7.49095C45.6942 8.68131 46.103 9.53616 46.403 10.1318C46.5157 10.3557 46.6035 10.5238 46.6712 10.6475C46.8125 10.74 47.0095 10.8633 47.2765 11.0248C47.923 11.4159 48.856 11.9573 50.1434 12.7043C54.1755 15.0438 56.8332 19.5438 56.8332 24.6278C56.8332 31.236 52.2891 36.9532 46.08 38.0456L46.3822 39.0128L46.4316 39.1697C46.5964 39.6925 46.7929 40.3159 46.8423 40.8939C47.0625 43.474 45.3388 45.8187 42.8104 46.378C42.2441 46.5033 41.5904 46.5017 41.0422 46.5003L40.8777 46.5H38.5004L38.3993 46.5C37.6567 46.5001 36.914 46.5003 36.2809 46.4337C35.5616 46.358 34.7479 46.1783 33.9589 45.6657C33.7921 45.5573 33.6318 45.4394 33.4786 45.3126C32.754 44.7125 32.3398 43.9893 32.053 43.3254C31.8006 42.741 31.5792 42.0322 31.3579 41.3234L31.3578 41.3232L31.3277 41.2267L30.9588 40.0461C30.6677 39.1146 30.5111 38.6269 30.3637 38.295L30.3573 38.2808L30.3419 38.279C29.9811 38.2373 29.4689 38.2333 28.493 38.2333H11.6248C5.05001 38.2333 -0.000162721 32.5992 -0.000162721 26.0056C-0.000162721 20.7103 3.23738 16.0597 7.91842 14.4112C8.7837 9.4533 12.8875 5.51111 18.0832 5.51111C19.6962 5.51111 20.9 5.51111 21.7204 5.50875C22.1314 5.50756 22.4384 5.50581 22.6494 5.50328L22.7582 5.50169L22.7738 5.48768C22.8796 5.39295 23.0325 5.25371 23.2396 5.06351C23.6525 4.68435 24.2505 4.13053 25.0563 3.38419ZM7.74984 16.3611L7.74988 16.3751L10.2186 16.3617L10.3332 16.3611H10.2185H7.74984ZM30.9998 18.0833C33.8533 18.0833 36.1665 20.3965 36.1665 23.25H41.3332C41.3332 17.5431 36.7068 12.9167 30.9998 12.9167V18.0833Z" fill="var(--fill-0, white)"/>
</g>
</svg>
