<svg preserveAspectRatio="none" width="100%" height="100%" overflow="visible" style="display: block;" viewBox="0 0 47 57" fill="none" xmlns="http://www.w3.org/2000/svg">
<g id="bulb">
<path id="Subtract" fill-rule="evenodd" clip-rule="evenodd" d="M0 23.25C0 10.4094 10.4094 2.03028e-05 23.25 2.03028e-05C36.0906 2.03028e-05 46.5 10.4094 46.5 23.25C46.5 36.0906 36.0906 46.5 23.25 46.5C10.4094 46.5 0 36.0906 0 23.25ZM15.9339 22.0997L20.6667 29.1989V41.3334H25.8333V29.1989L30.5661 22.0997L26.2672 19.2337L23.25 23.7595L20.2328 19.2337L15.9339 22.0997Z" fill="var(--fill-0, white)"/>
<path id="Subtract_2" d="M33.2839 48.9798C33.5121 48.0532 32.5523 47.3769 31.6498 47.687C29.0164 48.592 26.1906 49.0834 23.25 49.0834C20.3094 49.0834 17.4836 48.592 14.8502 47.687C13.9477 47.3769 12.9879 48.0532 13.2161 48.9798C14.3268 53.4891 18.3979 56.8334 23.25 56.8334C28.1021 56.8334 32.1732 53.4891 33.2839 48.9798Z" fill="var(--fill-0, white)"/>
</g>
</svg>
