<svg preserveAspectRatio="none" width="100%" height="100%" overflow="visible" style="display: block;" viewBox="0 0 44 57" fill="none" xmlns="http://www.w3.org/2000/svg">
<g id="direction">
<path id="Union" fill-rule="evenodd" clip-rule="evenodd" d="M43.444 18.0834C43.444 20.2535 42.3819 21.9384 41.0289 23.3944C39.7526 24.7678 37.9079 26.2576 35.7362 28.0116L35.7361 28.0116L35.5873 28.1318L35.3494 28.3243C34.1804 29.271 33.1442 30.1103 31.8795 30.5572C30.6149 31.0041 29.2814 31.0023 27.7772 31.0004L27.4712 31.0001H12.9168L12.7467 31.0001C10.4566 31.0002 8.48341 31.0003 6.90329 30.7879C5.20988 30.5602 3.58664 30.0468 2.27001 28.7302C0.953381 27.4135 0.439959 25.7903 0.212283 24.0969C-0.00015873 22.5167 -5.03295e-05 20.5435 7.77807e-05 18.2534L8.76354e-05 18.0834L7.77807e-05 17.9134C-5.03295e-05 15.6233 -0.00015873 13.6501 0.212283 12.07C0.439959 10.3765 0.953381 8.7533 2.27001 7.43667C3.58664 6.12004 5.20988 5.60662 6.9033 5.37895C8.48341 5.1665 10.4566 5.16661 12.7467 5.16674L12.9168 5.16675H27.4712L27.7772 5.16648C29.2814 5.16448 30.6149 5.16271 31.8795 5.60964C33.1442 6.05658 34.1804 6.89583 35.3494 7.84257L35.5873 8.03501L35.7361 8.1552L35.7361 8.15522C37.9078 9.90915 39.7526 11.399 41.0289 12.7725C42.3819 14.2284 43.444 15.9133 43.444 18.0834Z" fill="var(--fill-0, white)"/>
<path id="Vector 296 (Stroke)" fill-rule="evenodd" clip-rule="evenodd" d="M23.2501 28.4167V54.2501H18.0834V28.4167H23.2501Z" fill="var(--fill-0, white)"/>
<path id="Vector 399 (Stroke)" fill-rule="evenodd" clip-rule="evenodd" d="M33.5834 56.8334H7.75009V51.6667H33.5834V56.8334Z" fill="var(--fill-0, white)"/>
<path id="Vector 296 (Stroke)_2" fill-rule="evenodd" clip-rule="evenodd" d="M23.2501 8.13454e-05V7.75008H18.0834V8.13454e-05H23.2501Z" fill="var(--fill-0, white)"/>
</g>
</svg>
