<svg preserveAspectRatio="none" width="100%" height="100%" overflow="visible" style="display: block;" viewBox="0 0 47 57" fill="none" xmlns="http://www.w3.org/2000/svg">
<g id="file">
<g id="Subtract">
<path d="M18.0833 9.66352e-06C20.5189 1.10917e-05 21.7367 1.18564e-05 22.4933 0.756654C23.25 1.5133 23.25 2.73109 23.25 5.16669L23.25 16.9323C23.2497 18.0278 23.2495 19.0925 23.3676 19.9706C23.5007 20.9605 23.825 22.0902 24.7633 23.0285C25.7016 23.9668 26.8312 24.291 27.8211 24.4241C28.6992 24.5422 29.7639 24.542 30.8594 24.5418L41.3333 24.5417C43.7689 24.5417 44.9867 24.5417 45.7433 25.2984C46.5 26.055 46.5 27.2728 46.5 29.7084L46.5 44.0867C46.5001 46.3768 46.5002 48.35 46.2878 49.9301C46.0601 51.6236 45.5467 53.2468 44.2301 54.5634C42.9134 55.8801 41.2902 56.3935 39.5968 56.6212C38.0166 56.8336 36.0434 56.8335 33.7533 56.8334H12.7467C10.4565 56.8335 8.48333 56.8336 6.9032 56.6212C5.20978 56.3935 3.58654 55.8801 2.26991 54.5634C0.953288 53.2468 0.439863 51.6236 0.212189 49.9301C-0.000252942 48.35 -0.000142376 46.3768 -1.36495e-05 44.0867V12.7466C-0.000142376 10.4565 -0.000252942 8.48334 0.212189 6.90322C0.439863 5.2098 0.953288 3.58656 2.26991 2.26994C3.58654 0.953308 5.20978 0.439883 6.9032 0.212209C8.48332 -0.000232758 10.4565 -0.000122192 12.7466 6.53409e-06L18.0833 9.66352e-06Z" fill="var(--fill-0, white)"/>
<path d="M29.2787 0.709038C28.861 0.516901 28.4166 0.848 28.4166 1.30781V16.7917C28.4166 19.3724 28.3837 19.3751 31 19.3751H43.3516C44.4302 19.3751 44.9695 19.3751 45.1799 18.9331C45.3902 18.4912 45.0776 18.1065 44.4524 17.3371C44.1827 17.0051 43.8957 16.6713 43.599 16.3261L33.4711 4.51062L33.2122 4.20796C31.9531 2.734 30.8347 1.42468 29.2787 0.709038Z" fill="var(--fill-0, white)"/>
</g>
</g>
</svg>
