<svg preserveAspectRatio="none" width="100%" height="100%" overflow="visible" style="display: block;" viewBox="0 0 56 56" fill="none" xmlns="http://www.w3.org/2000/svg">
<g id="launch">
<g id="Subtract">
<path d="M29.3973 43.4336C28.7359 42.7722 28.9918 41.6246 29.7637 41.0964L41.1391 33.3133C41.9963 32.7268 43.1601 33.3406 43.1601 34.3793V39.5563C43.1601 40.9266 42.6158 42.2407 41.6468 43.2097L39.0635 45.793C37.0458 47.8107 33.7745 47.8107 31.7567 45.793L29.3973 43.4336Z" fill="var(--fill-0, white)"/>
<path d="M14.2734 25.606C13.7452 26.3779 12.5976 26.6338 11.9363 25.9725L9.5767 23.6129C7.55899 21.5952 7.559 18.3238 9.5767 16.3061L12.0387 13.8441C13.1486 12.7342 14.7027 12.1891 16.2627 12.3624L20.6969 12.8551C21.6657 12.9627 22.1707 14.0638 21.6203 14.8682L14.2734 25.606Z" fill="var(--fill-0, white)"/>
</g>
<path id="Union" fill-rule="evenodd" clip-rule="evenodd" d="M55.2667 6.18293C55.9897 2.5677 52.8023 -0.619718 49.1871 0.103328L37.7376 2.39323C34.4312 3.0545 31.5145 4.98244 29.6105 7.76523L16.4054 27.065C15.0014 29.117 15.258 31.8779 17.0161 33.6359L19.3751 35.9949L21.7341 38.3539C23.4921 40.112 26.253 40.3686 28.305 38.9646L47.6048 25.7595C50.3876 23.8555 52.3155 20.9388 52.9768 17.6324L55.2667 6.18293Z" fill="var(--fill-0, white)"/>
<path id="Vector 365 (Stroke)" fill-rule="evenodd" clip-rule="evenodd" d="M17.8618 41.1616L3.65347 55.3699L8.38116e-05 51.7165L14.2084 37.5082L17.8618 41.1616Z" fill="var(--fill-0, white)"/>
<path id="Vector 366 (Stroke)" fill-rule="evenodd" clip-rule="evenodd" d="M11.4035 34.7032L3.65347 42.4532L8.38116e-05 38.7999L7.75008 31.0499L11.4035 34.7032Z" fill="var(--fill-0, white)"/>
<path id="Vector 366 (Stroke)_2" fill-rule="evenodd" clip-rule="evenodd" d="M24.3201 47.6199L16.5701 55.3699L12.9167 51.7165L20.6667 43.9665L24.3201 47.6199Z" fill="var(--fill-0, white)"/>
</g>
</svg>
