<svg preserveAspectRatio="none" width="100%" height="100%" overflow="visible" style="display: block;" viewBox="0 0 57 57" fill="none" xmlns="http://www.w3.org/2000/svg">
<g id="rank">
<path id="Vector 186 (Stroke)" fill-rule="evenodd" clip-rule="evenodd" d="M56.8334 56.8333L8.13305e-05 56.8333L8.13305e-05 51.6666L56.8334 51.6666V56.8333Z" fill="var(--fill-0, white)"/>
<path id="Union" fill-rule="evenodd" clip-rule="evenodd" d="M30.5021 1.05853C30.0156 0.393219 29.2409 -4.07398e-05 28.4167 -4.07398e-05C27.5926 -4.07398e-05 26.8179 0.393219 26.3314 1.05853L23.056 5.53816L17.7834 7.26898C17.0004 7.52604 16.387 8.14131 16.1323 8.92516C15.8776 9.709 16.0122 10.5673 16.4946 11.2356L19.7428 15.7349L19.7596 21.2843C19.7621 22.1085 20.1577 22.882 20.8245 23.3664C21.4913 23.8509 22.3492 23.9881 23.1338 23.7358L28.4167 22.0369L33.6997 23.7358C34.4843 23.9881 35.3422 23.8509 36.009 23.3664C36.6758 22.882 37.0714 22.1085 37.0739 21.2843L37.0907 15.7349L40.3389 11.2356C40.8213 10.5673 40.9559 9.709 40.7012 8.92516C40.4465 8.14131 39.8331 7.52604 39.0501 7.26898L33.7775 5.53816L30.5021 1.05853Z" fill="var(--fill-0, white)"/>
<g id="Subtract">
<path fill-rule="evenodd" clip-rule="evenodd" d="M18.0834 41.2503C18.0834 41.2089 18.0834 41.3123 18.0831 41.2913C18.0616 39.9714 16.8615 38.7715 15.5416 38.7503C15.5206 38.75 15.7208 38.75 15.6407 38.75L-nan -nanL15.6407 38.75L15.5001 38.75H12.9168L12.7762 38.75C11.6807 38.7498 10.616 38.7496 9.73794 38.8676C8.748 39.0007 7.61837 39.325 6.68007 40.2633C5.74176 41.2016 5.4175 42.3312 5.2844 43.3212C5.16634 44.1993 5.16655 45.2639 5.16677 46.3594L5.16678 46.5V54.25C5.16678 55.6767 6.32338 56.8333 7.75012 56.8333H18.0834V41.2503ZM20.6667 56.8333V31.2253C20.6667 30.899 20.6667 30.7359 20.7472 30.4211C20.8989 29.8275 21.7145 28.8949 22.2826 28.6655C22.5839 28.5438 22.6074 28.5406 22.6546 28.5343L-nan -nanL22.6546 28.5343C23.5327 28.4162 24.5974 28.4164 25.6929 28.4166L25.8335 28.4167H31.0001L31.1407 28.4166C32.2362 28.4164 33.3009 28.4162 34.179 28.5343L-nan -nanL34.179 28.5343C34.226 28.5406 34.2496 28.5438 34.5508 28.6654C35.1189 28.8949 35.9346 29.8276 36.0863 30.4212C36.1667 30.736 36.1667 30.899 36.1667 31.2251V56.8333H20.6667Z" fill="var(--fill-0, white)"/>
<path d="M38.7501 56.8333H49.0835C50.5102 56.8333 51.6668 55.6767 51.6668 54.25V43.9167L51.6668 43.7761C51.667 42.6806 51.6672 41.6159 51.5492 40.7378C51.4161 39.7479 51.0918 38.6183 50.1535 37.6799C49.2152 36.7416 48.0856 36.4174 47.0956 36.2843C46.2175 36.1662 45.1529 36.1664 44.0574 36.1666L43.9168 36.1667H41.3335L41.1929 36.1666L-nan -nanL41.1929 36.1666C41.1129 36.1666 41.3129 36.1667 41.2919 36.167C39.972 36.1882 38.772 37.388 38.7505 38.7079C38.7501 38.729 38.7501 38.6257 38.7501 38.667L38.7501 56.8333Z" fill="var(--fill-0, white)"/>
</g>
</g>
</svg>
