<svg preserveAspectRatio="none" width="100%" height="100%" overflow="visible" style="display: block;" viewBox="0 0 57 57" fill="none" xmlns="http://www.w3.org/2000/svg">
<g id="send-to-back">
<path id="Union" fill-rule="evenodd" clip-rule="evenodd" d="M45.2084 33.5834C38.7881 33.5834 33.5834 38.7881 33.5834 45.2084C33.5834 51.6287 38.7881 56.8334 45.2084 56.8334C51.6287 56.8334 56.8334 51.6287 56.8334 45.2084C56.8334 38.7881 51.6287 33.5834 45.2084 33.5834Z" fill="var(--fill-0, white)"/>
<path id="Union_2" fill-rule="evenodd" clip-rule="evenodd" d="M11.6251 8.02502e-05C5.20476 8.02502e-05 7.19428e-05 5.20477 7.19428e-05 11.6251C7.19428e-05 18.0454 5.20476 23.2501 11.6251 23.2501C18.0454 23.2501 23.2501 18.0454 23.2501 11.6251C23.2501 5.20477 18.0454 8.02502e-05 11.6251 8.02502e-05Z" fill="var(--fill-0, white)"/>
<path id="Vector 387 (Stroke)" fill-rule="evenodd" clip-rule="evenodd" d="M39.411 8.10536C36.8092 7.75557 33.3609 7.75008 28.4167 7.75008V2.58341C28.4799 2.58341 28.5429 2.58341 28.6057 2.58341C33.3163 2.58334 37.1132 2.58328 40.0994 2.98477C43.1998 3.4016 45.8103 4.29335 47.8835 6.36662C49.9568 8.43989 50.8485 11.0503 51.2654 14.1507C51.6669 17.1369 51.6668 20.9338 51.6667 25.6444V25.8334H46.5001C46.5001 20.8892 46.4946 17.4409 46.1448 14.8392C45.805 12.3117 45.1834 10.9733 44.2301 10.02C43.2769 9.06671 41.9384 8.44517 39.411 8.10536Z" fill="var(--fill-0, white)"/>
<path id="Vector 387 (Stroke)_2" fill-rule="evenodd" clip-rule="evenodd" d="M17.4225 46.1448C20.0242 46.4946 23.4725 46.5001 28.4167 46.5001V51.6667C28.3536 51.6667 28.2906 51.6667 28.2277 51.6667C23.5171 51.6668 19.7203 51.6669 16.734 51.2654C13.6337 50.8486 11.0232 49.9568 8.94994 47.8835C6.87668 45.8103 5.98493 43.1998 5.5681 40.0994C5.16661 37.1132 5.16667 33.3164 5.16674 28.6058V28.4167H10.3334C10.3334 33.361 10.3389 36.8092 10.6887 39.411C11.0285 41.9384 11.65 43.2769 12.6033 44.2302C13.5566 45.1835 14.895 45.805 17.4225 46.1448Z" fill="var(--fill-0, white)"/>
</g>
</svg>
