<svg preserveAspectRatio="none" width="100%" height="100%" overflow="visible" style="display: block;" viewBox="0 0 52 57" fill="none" xmlns="http://www.w3.org/2000/svg">
<g id="shield">
<path id="Subtract" fill-rule="evenodd" clip-rule="evenodd" d="M23.8365 0.110557C25.1637 -0.0369132 26.5032 -0.0369133 27.8304 0.110557L49.3688 2.5037C50.7475 2.65689 51.7591 3.87162 51.6602 5.25529L49.6385 33.5598C49.2268 39.3236 46.0854 44.5435 41.1853 47.6061L27.2026 56.3452C26.3649 56.8688 25.302 56.8688 24.4643 56.3452L10.4817 47.6061C5.58158 44.5435 2.44016 39.3236 2.02846 33.5598L0.00670508 5.25529C-0.0921286 3.87162 0.919479 2.65689 2.29819 2.5037L23.8365 0.110557ZM37.9934 22.3979L39.8201 20.5712L36.1667 16.9178L34.34 18.7445L23.25 29.8345L17.3267 23.9112L13.6733 27.5646L21.4233 35.3146C22.4322 36.3234 24.0679 36.3234 25.0767 35.3146L37.9934 22.3979Z" fill="var(--fill-0, white)"/>
</g>
</svg>
